<?xml version="1.0" encoding="UTF-8"?>
<svg width="148px" height="124px" viewBox="0 0 148 124" version="1.1" xmlns="http://www.w3.org/2000/svg" xmlns:xlink="http://www.w3.org/1999/xlink">
    <!-- Generator: Sketch 42 (36781) - http://www.bohemiancoding.com/sketch -->
    <title>Group 4</title>
    <desc>Created with Sketch.</desc>
    <defs>
      <style>
        ellipse{
          transition: fill .17s;
        }
      </style>
    </defs>
    <g id="Page-1" stroke="none" stroke-width="1" fill="none" fill-rule="evenodd">
        <g id="Group-4" fill="#0E0E0E">
            <ellipse  cx="73.7366255" cy="120.355838" rx="3.64739993" ry="3.64416203"></ellipse>
            <ellipse  cx="73.7366255" cy="112.57506" rx="3.64739993" ry="3.64416203"></ellipse>
            <ellipse  cx="73.7366255" cy="104.794281" rx="3.64739993" ry="3.64416203"></ellipse>
            <ellipse  cx="73.7366255" cy="97.0135028" rx="3.64739993" ry="3.64416203"></ellipse>
            <ellipse  cx="73.7366255" cy="89.2327244" rx="3.64739993" ry="3.64416203"></ellipse>
            <ellipse  cx="73.7366255" cy="81.451946" rx="3.64739993" ry="3.64416203"></ellipse>
            <ellipse  cx="73.7366255" cy="73.6711676" rx="3.64739993" ry="3.64416203"></ellipse>
            <ellipse  cx="73.7366255" cy="65.8903892" rx="3.64739993" ry="3.64416203"></ellipse>
            <ellipse  cx="73.7366255" cy="58.1096108" rx="3.64739993" ry="3.64416203"></ellipse>
            <ellipse  cx="73.7366255" cy="50.3288324" rx="3.64739993" ry="3.64416203"></ellipse>
            <ellipse  cx="73.7366255" cy="42.548054" rx="3.64739993" ry="3.64416203"></ellipse>
            <ellipse  cx="73.7366255" cy="34.7672756" rx="3.64739993" ry="3.64416203"></ellipse>
            <ellipse  cx="65.9489338" cy="112.57506" rx="3.64739993" ry="3.64416203"></ellipse>
            <ellipse  cx="65.9489338" cy="104.794281" rx="3.64739993" ry="3.64416203"></ellipse>
            <ellipse  cx="65.9489338" cy="97.0135028" rx="3.64739993" ry="3.64416203"></ellipse>
            <ellipse  cx="65.9489338" cy="89.2327244" rx="3.64739993" ry="3.64416203"></ellipse>
            <ellipse  cx="65.9489338" cy="81.451946" rx="3.64739993" ry="3.64416203"></ellipse>
            <ellipse  cx="65.9489338" cy="73.6711676" rx="3.64739993" ry="3.64416203"></ellipse>
            <ellipse id="Oval-Copy-65" cx="65.9489338" cy="65.8903892" rx="3.64739993" ry="3.64416203"></ellipse>
            <ellipse id="Oval-Copy-80" cx="65.9489338" cy="58.1096108" rx="3.64739993" ry="3.64416203"></ellipse>
            <ellipse id="Oval-Copy-97" cx="65.9489338" cy="50.3288324" rx="3.64739993" ry="3.64416203"></ellipse>
            <ellipse id="Oval-Copy-152" cx="65.9489338" cy="26.9864972" rx="3.64739993" ry="3.64416203"></ellipse>
            <ellipse id="Oval-Copy-168" cx="65.9489338" cy="19.2057188" rx="3.64739993" ry="3.64416203"></ellipse>
            <ellipse id="Oval-Copy-114" cx="65.9489338" cy="42.548054" rx="3.64739993" ry="3.64416203"></ellipse>
            <ellipse id="Oval-Copy-133" cx="65.9489338" cy="34.7672756" rx="3.64739993" ry="3.64416203"></ellipse>
            <ellipse id="Oval-Copy-23" cx="58.1612421" cy="104.794281" rx="3.64739993" ry="3.64416203"></ellipse>
            <ellipse id="Oval-Copy-26" cx="58.1612421" cy="97.0135028" rx="3.64739993" ry="3.64416203"></ellipse>
            <ellipse id="Oval-Copy-33" cx="58.1612421" cy="89.2327244" rx="3.64739993" ry="3.64416203"></ellipse>
            <ellipse id="Oval-Copy-42" cx="58.1612421" cy="81.451946" rx="3.64739993" ry="3.64416203"></ellipse>
            <ellipse id="Oval-Copy-53" cx="58.1612421" cy="73.6711676" rx="3.64739993" ry="3.64416203"></ellipse>
            <ellipse id="Oval-Copy-66" cx="58.1612421" cy="65.8903892" rx="3.64739993" ry="3.64416203"></ellipse>
            <ellipse id="Oval-Copy-81" cx="58.1612421" cy="58.1096108" rx="3.64739993" ry="3.64416203"></ellipse>
            <ellipse id="Oval-Copy-98" cx="58.1612421" cy="50.3288324" rx="3.64739993" ry="3.64416203"></ellipse>
            <ellipse id="Oval-Copy-153" cx="58.1612421" cy="26.9864972" rx="3.64739993" ry="3.64416203"></ellipse>
            <ellipse id="Oval-Copy-169" cx="58.1612421" cy="19.2057188" rx="3.64739993" ry="3.64416203"></ellipse>
            <ellipse id="Oval-Copy-185" cx="58.1612421" cy="11.4249404" rx="3.64739993" ry="3.64416203"></ellipse>
            <ellipse id="Oval-Copy-115" cx="58.1612421" cy="42.548054" rx="3.64739993" ry="3.64416203"></ellipse>
            <ellipse id="Oval-Copy-134" cx="58.1612421" cy="34.7672756" rx="3.64739993" ry="3.64416203"></ellipse>
            <ellipse id="Oval-Copy-30" cx="50.3735503" cy="97.0135028" rx="3.64739993" ry="3.64416203"></ellipse>
            <ellipse id="Oval-Copy-34" cx="50.3735503" cy="89.2327244" rx="3.64739993" ry="3.64416203"></ellipse>
            <ellipse id="Oval-Copy-43" cx="50.3735503" cy="81.451946" rx="3.64739993" ry="3.64416203"></ellipse>
            <ellipse id="Oval-Copy-54" cx="50.3735503" cy="73.6711676" rx="3.64739993" ry="3.64416203"></ellipse>
            <ellipse id="Oval-Copy-67" cx="50.3735503" cy="65.8903892" rx="3.64739993" ry="3.64416203"></ellipse>
            <ellipse id="Oval-Copy-82" cx="50.3735503" cy="58.1096108" rx="3.64739993" ry="3.64416203"></ellipse>
            <ellipse id="Oval-Copy-99" cx="50.3735503" cy="50.3288324" rx="3.64739993" ry="3.64416203"></ellipse>
            <ellipse id="Oval-Copy-154" cx="50.3735503" cy="26.9864972" rx="3.64739993" ry="3.64416203"></ellipse>
            <ellipse id="Oval-Copy-170" cx="50.3735503" cy="19.2057188" rx="3.64739993" ry="3.64416203"></ellipse>
            <ellipse id="Oval-Copy-186" cx="50.3735503" cy="11.4249404" rx="3.64739993" ry="3.64416203"></ellipse>
            <ellipse id="Oval-Copy-116" cx="50.3735503" cy="42.548054" rx="3.64739993" ry="3.64416203"></ellipse>
            <ellipse id="Oval-Copy-135" cx="50.3735503" cy="34.7672756" rx="3.64739993" ry="3.64416203"></ellipse>
            <ellipse id="Oval-Copy-39" cx="42.5858586" cy="89.2327244" rx="3.64739993" ry="3.64416203"></ellipse>
            <ellipse id="Oval-Copy-44" cx="42.5858586" cy="81.451946" rx="3.64739993" ry="3.64416203"></ellipse>
            <ellipse id="Oval-Copy-55" cx="42.5858586" cy="73.6711676" rx="3.64739993" ry="3.64416203"></ellipse>
            <ellipse id="Oval-Copy-68" cx="42.5858586" cy="65.8903892" rx="3.64739993" ry="3.64416203"></ellipse>
            <ellipse id="Oval-Copy-83" cx="42.5858586" cy="58.1096108" rx="3.64739993" ry="3.64416203"></ellipse>
            <ellipse id="Oval-Copy-100" cx="42.5858586" cy="50.3288324" rx="3.64739993" ry="3.64416203"></ellipse>
            <ellipse id="Oval-Copy-155" cx="42.5858586" cy="26.9864972" rx="3.64739993" ry="3.64416203"></ellipse>
            <ellipse id="Oval-Copy-171" cx="42.5858586" cy="19.2057188" rx="3.64739993" ry="3.64416203"></ellipse>
            <ellipse id="Oval-Copy-187" cx="42.5858586" cy="11.4249404" rx="3.64739993" ry="3.64416203"></ellipse>
            <ellipse id="Oval-Copy-199" cx="42.5858586" cy="3.64416203" rx="3.64739993" ry="3.64416203"></ellipse>
            <ellipse id="Oval-Copy-117" cx="42.5858586" cy="42.548054" rx="3.64739993" ry="3.64416203"></ellipse>
            <ellipse id="Oval-Copy-136" cx="42.5858586" cy="34.7672756" rx="3.64739993" ry="3.64416203"></ellipse>
            <ellipse id="Oval-Copy-50" cx="34.7981669" cy="81.451946" rx="3.64739993" ry="3.64416203"></ellipse>
            <ellipse id="Oval-Copy-56" cx="34.7981669" cy="73.6711676" rx="3.64739993" ry="3.64416203"></ellipse>
            <ellipse id="Oval-Copy-69" cx="34.7981669" cy="65.8903892" rx="3.64739993" ry="3.64416203"></ellipse>
            <ellipse id="Oval-Copy-84" cx="34.7981669" cy="58.1096108" rx="3.64739993" ry="3.64416203"></ellipse>
            <ellipse id="Oval-Copy-101" cx="34.7981669" cy="50.3288324" rx="3.64739993" ry="3.64416203"></ellipse>
            <ellipse id="Oval-Copy-156" cx="34.7981669" cy="26.9864972" rx="3.64739993" ry="3.64416203"></ellipse>
            <ellipse id="Oval-Copy-172" cx="34.7981669" cy="19.2057188" rx="3.64739993" ry="3.64416203"></ellipse>
            <ellipse id="Oval-Copy-188" cx="34.7981669" cy="11.4249404" rx="3.64739993" ry="3.64416203"></ellipse>
            <ellipse id="Oval-Copy-200" cx="34.7981669" cy="3.64416203" rx="3.64739993" ry="3.64416203"></ellipse>
            <ellipse id="Oval-Copy-118" cx="34.7981669" cy="42.548054" rx="3.64739993" ry="3.64416203"></ellipse>
            <ellipse id="Oval-Copy-137" cx="34.7981669" cy="34.7672756" rx="3.64739993" ry="3.64416203"></ellipse>
            <ellipse id="Oval-Copy-63" cx="27.0104751" cy="73.6711676" rx="3.64739993" ry="3.64416203"></ellipse>
            <ellipse id="Oval-Copy-70" cx="27.0104751" cy="65.8903892" rx="3.64739993" ry="3.64416203"></ellipse>
            <ellipse id="Oval-Copy-85" cx="27.0104751" cy="58.1096108" rx="3.64739993" ry="3.64416203"></ellipse>
            <ellipse id="Oval-Copy-102" cx="27.0104751" cy="50.3288324" rx="3.64739993" ry="3.64416203"></ellipse>
            <ellipse id="Oval-Copy-157" cx="27.0104751" cy="26.9864972" rx="3.64739993" ry="3.64416203"></ellipse>
            <ellipse id="Oval-Copy-173" cx="27.0104751" cy="19.2057188" rx="3.64739993" ry="3.64416203"></ellipse>
            <ellipse id="Oval-Copy-189" cx="27.0104751" cy="11.4249404" rx="3.64739993" ry="3.64416203"></ellipse>
            <ellipse id="Oval-Copy-119" cx="27.0104751" cy="42.548054" rx="3.64739993" ry="3.64416203"></ellipse>
            <ellipse id="Oval-Copy-138" cx="27.0104751" cy="34.7672756" rx="3.64739993" ry="3.64416203"></ellipse>
            <ellipse id="Oval-Copy-78" cx="19.2227834" cy="65.8903892" rx="3.64739993" ry="3.64416203"></ellipse>
            <ellipse id="Oval-Copy-86" cx="19.2227834" cy="58.1096108" rx="3.64739993" ry="3.64416203"></ellipse>
            <ellipse id="Oval-Copy-103" cx="19.2227834" cy="50.3288324" rx="3.64739993" ry="3.64416203"></ellipse>
            <ellipse id="Oval-Copy-158" cx="19.2227834" cy="26.9864972" rx="3.64739993" ry="3.64416203"></ellipse>
            <ellipse id="Oval-Copy-174" cx="19.2227834" cy="19.2057188" rx="3.64739993" ry="3.64416203"></ellipse>
            <ellipse id="Oval-Copy-190" cx="19.2227834" cy="11.4249404" rx="3.64739993" ry="3.64416203"></ellipse>
            <ellipse id="Oval-Copy-120" cx="19.2227834" cy="42.548054" rx="3.64739993" ry="3.64416203"></ellipse>
            <ellipse id="Oval-Copy-139" cx="19.2227834" cy="34.7672756" rx="3.64739993" ry="3.64416203"></ellipse>
            <ellipse id="Oval-Copy-95" cx="11.4350917" cy="58.1096108" rx="3.64739993" ry="3.64416203"></ellipse>
            <ellipse id="Oval-Copy-104" cx="11.4350917" cy="50.3288324" rx="3.64739993" ry="3.64416203"></ellipse>
            <ellipse id="Oval-Copy-159" cx="11.4350917" cy="26.9864972" rx="3.64739993" ry="3.64416203"></ellipse>
            <ellipse id="Oval-Copy-175" cx="11.4350917" cy="19.2057188" rx="3.64739993" ry="3.64416203"></ellipse>
            <ellipse id="Oval-Copy-121" cx="11.4350917" cy="42.548054" rx="3.64739993" ry="3.64416203"></ellipse>
            <ellipse id="Oval-Copy-140" cx="11.4350917" cy="34.7672756" rx="3.64739993" ry="3.64416203"></ellipse>
            <ellipse id="Oval-Copy-131" cx="3.64739993" cy="42.548054" rx="3.64739993" ry="3.64416203"></ellipse>
            <ellipse id="Oval-Copy-141" cx="3.64739993" cy="34.7672756" rx="3.64739993" ry="3.64416203"></ellipse>
            <ellipse id="Oval-Copy-17" cx="81.5243172" cy="112.57506" rx="3.64739993" ry="3.64416203"></ellipse>
            <ellipse id="Oval-Copy-21" cx="81.5243172" cy="104.794281" rx="3.64739993" ry="3.64416203"></ellipse>
            <ellipse id="Oval-Copy-27" cx="81.5243172" cy="97.0135028" rx="3.64739993" ry="3.64416203"></ellipse>
            <ellipse id="Oval-Copy-35" cx="81.5243172" cy="89.2327244" rx="3.64739993" ry="3.64416203"></ellipse>
            <ellipse id="Oval-Copy-45" cx="81.5243172" cy="81.451946" rx="3.64739993" ry="3.64416203"></ellipse>
            <ellipse id="Oval-Copy-57" cx="81.5243172" cy="73.6711676" rx="3.64739993" ry="3.64416203"></ellipse>
            <ellipse id="Oval-Copy-71" cx="81.5243172" cy="65.8903892" rx="3.64739993" ry="3.64416203"></ellipse>
            <ellipse id="Oval-Copy-87" cx="81.5243172" cy="58.1096108" rx="3.64739993" ry="3.64416203"></ellipse>
            <ellipse id="Oval-Copy-105" cx="81.5243172" cy="50.3288324" rx="3.64739993" ry="3.64416203"></ellipse>
            <ellipse id="Oval-Copy-160" cx="81.5243172" cy="26.9864972" rx="3.64739993" ry="3.64416203"></ellipse>
            <ellipse id="Oval-Copy-176" cx="81.5243172" cy="19.2057188" rx="3.64739993" ry="3.64416203"></ellipse>
            <ellipse id="Oval-Copy-122" cx="81.5243172" cy="42.548054" rx="3.64739993" ry="3.64416203"></ellipse>
            <ellipse id="Oval-Copy-142" cx="81.5243172" cy="34.7672756" rx="3.64739993" ry="3.64416203"></ellipse>
            <ellipse id="Oval-Copy-22" cx="89.312009" cy="104.794281" rx="3.64739993" ry="3.64416203"></ellipse>
            <ellipse id="Oval-Copy-28" cx="89.312009" cy="97.0135028" rx="3.64739993" ry="3.64416203"></ellipse>
            <ellipse id="Oval-Copy-36" cx="89.312009" cy="89.2327244" rx="3.64739993" ry="3.64416203"></ellipse>
            <ellipse id="Oval-Copy-46" cx="89.312009" cy="81.451946" rx="3.64739993" ry="3.64416203"></ellipse>
            <ellipse id="Oval-Copy-58" cx="89.312009" cy="73.6711676" rx="3.64739993" ry="3.64416203"></ellipse>
            <ellipse id="Oval-Copy-72" cx="89.312009" cy="65.8903892" rx="3.64739993" ry="3.64416203"></ellipse>
            <ellipse id="Oval-Copy-88" cx="89.312009" cy="58.1096108" rx="3.64739993" ry="3.64416203"></ellipse>
            <ellipse id="Oval-Copy-106" cx="89.312009" cy="50.3288324" rx="3.64739993" ry="3.64416203"></ellipse>
            <ellipse id="Oval-Copy-161" cx="89.312009" cy="26.9864972" rx="3.64739993" ry="3.64416203"></ellipse>
            <ellipse id="Oval-Copy-177" cx="89.312009" cy="19.2057188" rx="3.64739993" ry="3.64416203"></ellipse>
            <ellipse id="Oval-Copy-193" cx="89.312009" cy="11.4249404" rx="3.64739993" ry="3.64416203"></ellipse>
            <ellipse id="Oval-Copy-123" cx="89.312009" cy="42.548054" rx="3.64739993" ry="3.64416203"></ellipse>
            <ellipse id="Oval-Copy-143" cx="89.312009" cy="34.7672756" rx="3.64739993" ry="3.64416203"></ellipse>
            <ellipse id="Oval-Copy-29" cx="97.0997007" cy="97.0135028" rx="3.64739993" ry="3.64416203"></ellipse>
            <ellipse id="Oval-Copy-37" cx="97.0997007" cy="89.2327244" rx="3.64739993" ry="3.64416203"></ellipse>
            <ellipse id="Oval-Copy-47" cx="97.0997007" cy="81.451946" rx="3.64739993" ry="3.64416203"></ellipse>
            <ellipse id="Oval-Copy-59" cx="97.0997007" cy="73.6711676" rx="3.64739993" ry="3.64416203"></ellipse>
            <ellipse id="Oval-Copy-73" cx="97.0997007" cy="65.8903892" rx="3.64739993" ry="3.64416203"></ellipse>
            <ellipse id="Oval-Copy-89" cx="97.0997007" cy="58.1096108" rx="3.64739993" ry="3.64416203"></ellipse>
            <ellipse id="Oval-Copy-107" cx="97.0997007" cy="50.3288324" rx="3.64739993" ry="3.64416203"></ellipse>
            <ellipse id="Oval-Copy-162" cx="97.0997007" cy="26.9864972" rx="3.64739993" ry="3.64416203"></ellipse>
            <ellipse id="Oval-Copy-178" cx="97.0997007" cy="19.2057188" rx="3.64739993" ry="3.64416203"></ellipse>
            <ellipse id="Oval-Copy-194" cx="97.0997007" cy="11.4249404" rx="3.64739993" ry="3.64416203"></ellipse>
            <ellipse id="Oval-Copy-124" cx="97.0997007" cy="42.548054" rx="3.64739993" ry="3.64416203"></ellipse>
            <ellipse id="Oval-Copy-144" cx="97.0997007" cy="34.7672756" rx="3.64739993" ry="3.64416203"></ellipse>
            <ellipse id="Oval-Copy-38" cx="104.887392" cy="89.2327244" rx="3.64739993" ry="3.64416203"></ellipse>
            <ellipse id="Oval-Copy-48" cx="104.887392" cy="81.451946" rx="3.64739993" ry="3.64416203"></ellipse>
            <ellipse id="Oval-Copy-60" cx="104.887392" cy="73.6711676" rx="3.64739993" ry="3.64416203"></ellipse>
            <ellipse id="Oval-Copy-74" cx="104.887392" cy="65.8903892" rx="3.64739993" ry="3.64416203"></ellipse>
            <ellipse id="Oval-Copy-90" cx="104.887392" cy="58.1096108" rx="3.64739993" ry="3.64416203"></ellipse>
            <ellipse id="Oval-Copy-108" cx="104.887392" cy="50.3288324" rx="3.64739993" ry="3.64416203"></ellipse>
            <ellipse id="Oval-Copy-163" cx="104.887392" cy="26.9864972" rx="3.64739993" ry="3.64416203"></ellipse>
            <ellipse id="Oval-Copy-179" cx="104.887392" cy="19.2057188" rx="3.64739993" ry="3.64416203"></ellipse>
            <ellipse id="Oval-Copy-195" cx="104.887392" cy="11.4249404" rx="3.64739993" ry="3.64416203"></ellipse>
            <ellipse id="Oval-Copy-205" cx="104.887392" cy="3.64416203" rx="3.64739993" ry="3.64416203"></ellipse>
            <ellipse id="Oval-Copy-125" cx="104.887392" cy="42.548054" rx="3.64739993" ry="3.64416203"></ellipse>
            <ellipse id="Oval-Copy-145" cx="104.887392" cy="34.7672756" rx="3.64739993" ry="3.64416203"></ellipse>
            <ellipse id="Oval-Copy-49" cx="112.675084" cy="81.451946" rx="3.64739993" ry="3.64416203"></ellipse>
            <ellipse id="Oval-Copy-61" cx="112.675084" cy="73.6711676" rx="3.64739993" ry="3.64416203"></ellipse>
            <ellipse id="Oval-Copy-75" cx="112.675084" cy="65.8903892" rx="3.64739993" ry="3.64416203"></ellipse>
            <ellipse id="Oval-Copy-91" cx="112.675084" cy="58.1096108" rx="3.64739993" ry="3.64416203"></ellipse>
            <ellipse id="Oval-Copy-109" cx="112.675084" cy="50.3288324" rx="3.64739993" ry="3.64416203"></ellipse>
            <ellipse id="Oval-Copy-164" cx="112.675084" cy="26.9864972" rx="3.64739993" ry="3.64416203"></ellipse>
            <ellipse id="Oval-Copy-180" cx="112.675084" cy="19.2057188" rx="3.64739993" ry="3.64416203"></ellipse>
            <ellipse id="Oval-Copy-196" cx="112.675084" cy="11.4249404" rx="3.64739993" ry="3.64416203"></ellipse>
            <ellipse id="Oval-Copy-206" cx="112.675084" cy="3.64416203" rx="3.64739993" ry="3.64416203"></ellipse>
            <ellipse id="Oval-Copy-126" cx="112.675084" cy="42.548054" rx="3.64739993" ry="3.64416203"></ellipse>
            <ellipse id="Oval-Copy-146" cx="112.675084" cy="34.7672756" rx="3.64739993" ry="3.64416203"></ellipse>
            <ellipse id="Oval-Copy-62" cx="120.462776" cy="73.6711676" rx="3.64739993" ry="3.64416203"></ellipse>
            <ellipse id="Oval-Copy-76" cx="120.462776" cy="65.8903892" rx="3.64739993" ry="3.64416203"></ellipse>
            <ellipse id="Oval-Copy-92" cx="120.462776" cy="58.1096108" rx="3.64739993" ry="3.64416203"></ellipse>
            <ellipse id="Oval-Copy-110" cx="120.462776" cy="50.3288324" rx="3.64739993" ry="3.64416203"></ellipse>
            <ellipse id="Oval-Copy-165" cx="120.462776" cy="26.9864972" rx="3.64739993" ry="3.64416203"></ellipse>
            <ellipse id="Oval-Copy-181" cx="120.462776" cy="19.2057188" rx="3.64739993" ry="3.64416203"></ellipse>
            <ellipse id="Oval-Copy-197" cx="120.462776" cy="11.4249404" rx="3.64739993" ry="3.64416203"></ellipse>
            <ellipse id="Oval-Copy-127" cx="120.462776" cy="42.548054" rx="3.64739993" ry="3.64416203"></ellipse>
            <ellipse id="Oval-Copy-147" cx="120.462776" cy="34.7672756" rx="3.64739993" ry="3.64416203"></ellipse>
            <ellipse id="Oval-Copy-77" cx="128.250468" cy="65.8903892" rx="3.64739993" ry="3.64416203"></ellipse>
            <ellipse id="Oval-Copy-93" cx="128.250468" cy="58.1096108" rx="3.64739993" ry="3.64416203"></ellipse>
            <ellipse id="Oval-Copy-111" cx="128.250468" cy="50.3288324" rx="3.64739993" ry="3.64416203"></ellipse>
            <ellipse id="Oval-Copy-166" cx="128.250468" cy="26.9864972" rx="3.64739993" ry="3.64416203"></ellipse>
            <ellipse id="Oval-Copy-182" cx="128.250468" cy="19.2057188" rx="3.64739993" ry="3.64416203"></ellipse>
            <ellipse id="Oval-Copy-198" cx="128.250468" cy="11.4249404" rx="3.64739993" ry="3.64416203"></ellipse>
            <ellipse id="Oval-Copy-128" cx="128.250468" cy="42.548054" rx="3.64739993" ry="3.64416203"></ellipse>
            <ellipse id="Oval-Copy-148" cx="128.250468" cy="34.7672756" rx="3.64739993" ry="3.64416203"></ellipse>
            <ellipse id="Oval-Copy-94" cx="136.038159" cy="58.1096108" rx="3.64739993" ry="3.64416203"></ellipse>
            <ellipse id="Oval-Copy-112" cx="136.038159" cy="50.3288324" rx="3.64739993" ry="3.64416203"></ellipse>
            <ellipse id="Oval-Copy-167" cx="136.038159" cy="26.9864972" rx="3.64739993" ry="3.64416203"></ellipse>
            <ellipse id="Oval-Copy-183" cx="136.038159" cy="19.2057188" rx="3.64739993" ry="3.64416203"></ellipse>
            <ellipse id="Oval-Copy-129" cx="136.038159" cy="42.548054" rx="3.64739993" ry="3.64416203"></ellipse>
            <ellipse id="Oval-Copy-149" cx="136.038159" cy="34.7672756" rx="3.64739993" ry="3.64416203"></ellipse>
            <ellipse id="Oval-Copy-130" cx="143.825851" cy="42.548054" rx="3.64739993" ry="3.64416203"></ellipse>
            <ellipse id="Oval-Copy-150" cx="143.825851" cy="34.7672756" rx="3.64739993" ry="3.64416203"></ellipse>
        </g>
    </g>
    <script type="text/ecmascript">
  <!-- Animation Script Goes Here. -->
      var circle = document.getElementsByTagName('ellipse');
      var i = 0;

      function load(){
        var loadWhite = setInterval(function(){whiteCircles();},15);
        function whiteCircles(){
          if(i > 183){
            clearInterval(loadWhite);
            i = 0;
            unLoad();
          }
          else{
            circle[i].style.fill="#F4F4F4";
            i ++;
          };
        };
      };

      function unLoad(){
        var loadBlack = setInterval(function(){blackCircles();},15);
        function blackCircles(){
          if(i > 183){
            clearInterval(loadBlack);
            i=0;
            load();
          }
          else{
            circle[i].style.fill="#0E0E0E";
            i ++;
          };
        };
      };

      load();


    </script>
</svg>
